<svg xmlns="http://www.w3.org/2000/svg" fill="none" viewBox="0 0 657 739">
  <path fill="#FBB829" d="M320 737c63 8 112-55 161-96 43-35 75-79 104-126 30-48 65-96 70-153 5-59 3-130-42-169-46-41-128 7-180-26-57-35-51-136-113-160-58-22-125 14-177 49-50 33-89 84-108 142-17 53-2 109 8 164 8 47 21 92 44 134 24 43 59 75 92 110 46 47 76 124 141 131Z"/>
  <path fill="#000" stroke="#000" stroke-width="1.3" d="M612 369a21 21 0 0 1 0-14l24-64a48 48 0 0 0-18-57l-57-37c-5-3-8-8-9-13l-18-66a48 48 0 0 0-48-35h1l-70 4h-1c-5 0-9-2-13-5l-53-43a47 47 0 0 0-60 0l-53 43c-4 3-8 5-13 5h-1l-69-4h-2c-21 0-40 15-46 35l-18 66c-1 5-4 10-9 13l-57 37a48 48 0 0 0-18 57l24 64a21 21 0 0 1 0 14L4 433a47 47 0 0 0 18 57l57 37c5 3 8 8 9 13l18 66a48 48 0 0 0 48 35l69-4h1c5 0 9 2 13 5l53 43a48 48 0 0 0 60 0l53-43c4-3 8-5 13-5h1l68 4h3c21 0 40-15 46-35l18-66c1-5 4-10 9-13l57-37a48 48 0 0 0 18-57l-24-64Zm-9 99-57 37c-10 7-17 16-20 28l-18 66c-2 9-11 15-20 15h-1l-67-3h-4c-11 0-21 3-30 10l-53 43a21 21 0 0 1-26 0l-53-43a47 47 0 0 0-33-10l-68 3h-1c-9 0-18-6-20-15l-18-66c-3-12-10-21-20-28l-57-37a21 21 0 0 1-9-25l25-64a47 47 0 0 0 0-34l-25-64a21 21 0 0 1 9-25l57-37c10-7 17-16 20-28l18-66c2-9 11-15 20-15h1l68 3h3c11 0 21-3 30-10l53-43-8-11 8 11a21 21 0 0 1 26 0l53 43a48 48 0 0 0 32 10l70-3h-1 1c9 0 18 6 20 15l18 66c3 12 10 21 20 28l57 37a21 21 0 0 1 8 25l-24 64a47 47 0 0 0 0 34l25 64a21 21 0 0 1-9 25Z"/>
  <g clip-path="url(#a)">
    <path fill="#000" d="M325 169c-17 0-34 3-51 8l1 3v16l-2 2h-1l-4 2 2 14 2 14 4-2c3-2 5-2 7-1l4 3c0 3-8 8-12 8s-5 0-5 3l-2 8c-2 3-2 7-2 13 1 9-1 13-7 13-2 0-4 1-5 3l-6 4c-5 3-7 7-3 7l1 5c-1 7-1 7 4 3l3-4 6 4 5 3 4-4c6-5 14-8 17-8s3 1 5 9l2 20c1 12-1 14-8 8-7-5-14-9-18-9l-5-2c-2-2-3-2-4-1-2 4-6 1-9-6-3-6-3-6-2-2 1 7 3 12 7 13s4 2 3 8a233 233 0 0 0-1 74c0 7 4 12 10 14 2 0 7 5 12 10l14 12c4 3 5 4 6 19 3 21 3 20-4 21-3 1-8 3-11 6s-9 6-13 7c-29 8-43 12-55 18l-11 6v2l-11 2c-142 147-9 0 8 42l-6 4 7-2v1-1l1-1 2 1v-1h3l13-2 14-2 9-5 1 2 5 10 4-5 2-5v8l2 13 2 5 1-6c1-7 0-31-2-31l-1-3c0-2-2-5-4-6-4-4-6-12-3-15 1-1-1-1-3 1-4 2-4 2-6 0v-1l-2-1-2-2c0-3 6-6 11-6 3 0 2 3-2 4-3 2-3 2 0 2l5 1c2 3 17 2 19 0 1-2 3-3 5-3s15 13 18 19c1 4 2 4 7 4 4-1 6-1 6-3 0-5 1-6 2-5l3-4c1-3 4-5 10-7 5-2 12-7 15-11 5-3 10-7 14-8 3-1 9-3 13-6l30-12c7-2 25-11 24-11a663 663 0 0 1-94 31l-5-4c-3-3-4-5-3-13v-5l1-3v-5l1-3 1-6h-1l21 2 25-2c8-3 16-7 22-13h1c3-1 4-3 4-5h1-1l2-3-13-8-15 2v1h-2c-8 1-12 1-4-2h-1l6-2a314 314 0 0 1 17-7c8-3 9-4 9-10-1-3 3-8 6-8 1 0 3-2 3-4l3-4 12-5 8-5-2 5v8c2 4 2 4-3 8-6 3-6 3-1 2 11-2 15-2 17 0l4 2c3 0 8-8 11-16a126 126 0 0 1 25-52c4-10 5-44 1-41l-1-11c0-13-3-26-6-31l-2-7c0-2-1-3-2-3-2 1-2 0-2-1l1-2 1 3-1-3c2 0 1-7-2-10l-1-1-4-9c-4-8-9-14-15-20-14-13-31-22-48-28a194 194 0 0 0-66-10Zm38 260-5 2 4 2 2-1-1-3Zm-122 87 1-1-1 1Zm93-336c1 5 4 6 14 9h8c4-1 5-1 4-3s0-2 1-1l2-1-2-1-1-2 29 5c17 5 34 12 47 23l3 3v1l2 1 7 7v3l1 6c2 1 2 1 0 1s-2 4 1 6c1 0 2 1 2 3l-1 1a187 187 0 0 0-90-23l3-7-2-7-4-5c-4-3-9-5-13-6-9-4-19-4-29-5l-9-5 25-3h2Zm15 0h6v2c0 2-2 3-6 1v-3Zm-27 6h-2c-1 1 0 1 2 1s3 0 2-1h-2Zm18 12-1 1 1-1Zm4 8h2l2 2-1-1-3-1Zm7 2v1-1Zm-4 21c19-1 51 6 56 12 3 4 3 5 0 4l-2 1 2 2c3 0 3 2 0 5-2 2-2 3-1 6 1 2 2 6 1 9-1 6-2 7-5 4-1-1-1 0-1 3l1 4 1 2-2 1c-2-1-3 0-2 2 1 3 1 3-3 3-5 0-14-3-19-6-5-4-21-8-23-7s-18-3-18-5l5 1c5 0 5 0 2-1l-6-6c-3-4-5-5-12-5-14-2-20-1-29 3-8 4-12 4-13 2s6-9 8-9l8-5a104 104 0 0 1 52-20Zm61 13c2 0 5 1 5 3s-2 2-5 0c-1-1-2-2-1-3h1Zm2 9 1 1-1 2-2-1 2-2Zm-87 17c2 0 2 1 0 4-1 5-2 5-5 3-3-1-3-2 2-5l3-2Zm10 7 5 1c3 1 7 2 9 1l12 3 10 4-6 2c-12 2-16 1-25-4-6-3-8-5-7-6l2-1Zm-73 3c2 0 3 2 3 5 0 6-2 8-6 5-2-2-2-3 0-6l3-4Zm35 8 2 2c1 1 0 3-1 4l-1 1 2 6v6c-2 0-4-8-4-13 0-4 1-6 2-6Zm40 4c2 0 3 1 3 2l-5 1c-4 0-5 0-4-1l6-2Zm34 3c10 0 24 2 38 7 9 3 16 5 17 4 2-2 13-4 17-3s7 6 9 12c1 3 0 3-2-1-5-7-11-9-21-7l-12 5-4 3c-3 0-2 5 1 12 4 7 4 8 1 11l-4 3c-3 0-6 5-5 7 2 3 5 2 6-1 1-4 5-4 10-1l5 2c2 0 3 1 3 2 0 6 6 4 10-3 5-6 4-7-2-3-4 3-4 3-2 0 3-2 3-5 3-13-1-13 1-16 6-7 4 6 6 8 6 3 0-1 1-2 1 0 1 2-2 11-4 10-1-1-1 0-1 1 1 3-7 15-14 21-11 9-21 11-26 6-2-2-3-2-5 0-3 2-5 1-4-4s-4-9-8-9c-5 1-11-2-9-4 1-2-2-2-7 1-5 2-8 1-4-2 3-2 3-2 1-2-4 0-6 3-7 9l-2 6-3 1h-3l-2 1-3 1-1-1v1l-3-2v2h-1c0-1-1-2-5 0h-1l-12-1-3-1h-3l-6-1-2 8-1-7 3-6 2-3 1-3-2 1c0-2-1-4-3-5-3-4-4-10-2-12 1-1 0-2-2-2-4-1-4-4 0-9l3-6c0-2 1-3 3-4l13-6 18-6 12-3 12-2Zm-68 0c3 0 11 8 11 10l-2 2-4 1c-3 1-4 0-5-5v-8Zm107 17-4 1c-4 1-5 1-3 3 1 1 2 1 5-1s4-3 2-3Zm-116 21c4 0 7 2 8 6 1 6-1 8-6 7l-6-1-2-1c-2 0-3 0 0 4 1 4 1 4-8 0l-6-2 7-10 7-2 6-1Zm-29 12-1 2v-1l1-1Zm149 5-1 1c-4 1-4 6 0 8s4 2 6-2c1-3-2-7-5-7Zm-137 9 8 1c11 4 22 18 15 21l-2-1-3-3c-2-1-3-1-3 1 0 1 2 3 4 3l4 4c0 2 1 3 4 4 2 1 3 2 2 3l-4-1c-1-1-2-1-4 1l-3 5c0 1-6 1-6-1l-6-2-12-3-8-3c-3 0-3-3 2-7 4-4 5-4 13-4l9 3c1 3 3 2 3-2 0-2-1-3-2-3v-4l-3-4c-2-4-9-8-12-5h-2c0-2 3-3 6-3Zm83 97h-1l-2 1 3-1Zm93 2-3 3-8 8c11 8 23 11 35 13l12 1 17-1h1-1l1-1c0-2-17-7-26-7l-6-1c-9-4-17-8-22-15Zm9 2c-1 0-1 2 4 4l7 2c3 0 3 0-5-4l-6-2Zm-12 16h-1l-5 2-3 5 1 6 4 6-1-7 1-3 2-1v1h-1l10 11 4-8c0-2 0-5-2-7-2-4-6-5-9-5Zm-2 9h1c1 1 2 1 0 1l-1-1Zm-214 29v1-1Zm-15 14Zm53 9-1 6c-2 7-2 35-1 36l7 1c5 0 6 0 8-7s2-7 0-4l-3 4-1-8-3-12c-2-2-3-7-4-10l-2-6Zm-67 15v1l-1 5 1-6Zm105 3 4 6c2 4 4 5 6 4 8-2 6-7-4-9l-6-1Zm-4 4c-3 0-3 0-2 2l1 3 1 3v2c-1 0-2 0-2-2h-2v3c1 3 6 2 8-1 1-1 2-1 2 1l2-2c1-4-3-9-8-9Zm3 3 2 1c2 3 0 3-2 1v-2Zm-17 5-1 4v7c1 2 18 3 20 0l6-3c4-2 5-2 7 0 3 3 4 1 0-4-2-4-9-4-10 0s-9 8-14 7c-2-1-4-3-5-6l-3-5Z"/>
  </g>
  <defs>
    <clipPath id="a">
      <path fill="#fff" d="M127 169h378v413H127z"/>
    </clipPath>
  </defs>
</svg>
